inDegrees=no
num_controls=7
num_derivatives=13
num_iterations=148
num_multipliers=7
num_parameters=0
num_slacks=7
num_states=26
objective=4.378299
objective_accelerations=0.227736
objective_balance=0.037312
objective_effort=0.310342
objective_height=3.753596
objective_ligament=0.049313
solver_duration=1375.345609
status=Solve_Succeeded
success=true
DataType=double
version=3
OpenSimVersion=4.4-2022-07-23-0e9fedc
endheader
time	/jointset/ground_pelvis/pelvis_tilt/value	/jointset/ground_pelvis/pelvis_tx/value	/jointset/ground_pelvis/pelvis_ty/value	/jointset/hip_l/hip_flexion_l/value	/jointset/hip_l/hip_adduction_l/value	/jointset/hip_l/hip_rotation_l/value	/jointset/back/lumbar_extension/value	/jointset/patellofemoral_l/patellar_flexion_l/value	/jointset/knee_l/knee_flexion_l/value	/jointset/knee_l/knee_adduction_l/value	/jointset/knee_l/knee_rotation_l/value	/jointset/ankle_l/ankle_angle_l/value	/jointset/subtalar_l/subtalar_angle_l/value	/jointset/ground_pelvis/pelvis_tilt/speed	/jointset/ground_pelvis/pelvis_tx/speed	/jointset/ground_pelvis/pelvis_ty/speed	/jointset/hip_l/hip_flexion_l/speed	/jointset/hip_l/hip_adduction_l/speed	/jointset/hip_l/hip_rotation_l/speed	/jointset/back/lumbar_extension/speed	/jointset/patellofemoral_l/patellar_flexion_l/speed	/jointset/knee_l/knee_flexion_l/speed	/jointset/knee_l/knee_adduction_l/speed	/jointset/knee_l/knee_rotation_l/speed	/jointset/ankle_l/ankle_angle_l/speed	/jointset/subtalar_l/subtalar_angle_l/speed	/forceset/tau_hip_flexion_l	/forceset/tau_hip_adduction_l	/forceset/tau_hip_rotation_l	/forceset/tau_knee_flexion_l	/forceset/tau_ankle_angle_l	/forceset/tau_subtalar_angle_l	/forceset/tau_lumbar_extension	lambda_cid13_p0	lambda_cid13_p1	lambda_cid13_p2	lambda_cid13_p3	lambda_cid13_p4	lambda_cid13_p5	lambda_cid14_p0	/jointset/ground_pelvis/pelvis_tilt/accel	/jointset/ground_pelvis/pelvis_tx/accel	/jointset/ground_pelvis/pelvis_ty/accel	/jointset/hip_l/hip_flexion_l/accel	/jointset/hip_l/hip_adduction_l/accel	/jointset/hip_l/hip_rotation_l/accel	/jointset/back/lumbar_extension/accel	/jointset/patellofemoral_l/patellar_flexion_l/accel	/jointset/knee_l/knee_flexion_l/accel	/jointset/knee_l/knee_adduction_l/accel	/jointset/knee_l/knee_rotation_l/accel	/jointset/ankle_l/ankle_angle_l/accel	/jointset/subtalar_l/subtalar_angle_l/accel	gamma_cid13_p0	gamma_cid13_p1	gamma_cid13_p2	gamma_cid13_p3	gamma_cid13_p4	gamma_cid13_p5	gamma_cid14_p0
1	0.1886223519083235	0.05145546875826747	0.803725650916746	0.6079552748195562	-0.3500211216384795	-0.01511134380928143	-0.9599310263416538	1.148826879653456	1.148826879653235	-0.1003064349979805	-0.1745314007105246	0.4363305763125315	0.112076640755227	0.1230093432944522	0.03250406121483073	0.05151159384678232	-0.3066131235409372	0.0004805192294118771	-0.06935128649784311	-0.005282259961156577	-0.1679832697632913	-0.1679832697633188	0.0003034216272483617	-9.038207277158725e-07	0.005210940044840462	0.005308438831109809	-0.1619494966381721	0.06281723227325829	-0.004806871191674656	-0.3693023534125278	-0.1060753975959872	0.03633029191505685	0.3108429870318301	-81.77493147915773	-2.344333815834613	0.9295108640568367	19.88104429810807	-767.0109886670811	-77.87948644625602	-2.094735180478184	-0.3268842214906125	-0.1260730802792906	0.8796438859110532	-1.997958378934603	0.1938590176188694	-1.271814459560499	1.039027283008347	-4.000652310332098	-4.000652310331564	-0.1421977848215673	-0.005145747926590061	-1.959269122281684	-0.7606102025253332	-8.447994490978079e-09	1.376264476955131e-08	3.267058355617288e-08	7.732778922037853e-09	-2.30177602419476e-08	3.382734456456527e-08	-6.350872099379011e-09
1.01	0.1898356381290215	0.05177429987879183	0.8042845593161719	0.6047901158365241	-0.350006311634719	-0.01586880897254667	-0.9599310493464505	1.146947578117843	1.146947578117591	-0.1003094955367707	-0.1745313285922448	0.4362850373662984	0.1120923933462516	0.1196307678344255	0.031270812021349	0.06026102609733641	-0.3263958545669734	0.002484740603721087	-0.08213715830238975	0.005325203485842357	-0.207866351806615	-0.2078663518066261	-0.000915102611293976	1.314931827273594e-05	-0.01431201719398741	-0.002148087262425039	-0.1612457019227844	0.06287324423336441	-0.004851424985415326	-0.3688880341854422	-0.1061537516131727	0.03635613171106772	0.3105365563507909	-81.77670432916908	-2.372519679634845	0.9537359014319736	19.73676146347048	-766.7891746864083	-77.8960515556435	-2.136820366130359	-0.3459147332440661	-0.1206512676784754	0.8712284448399447	-1.965008844233166	0.2041881336977684	-1.281293270750698	1.078737541357976	-3.980531591510706	-3.980531591508738	-0.1116187193079793	0.004364339733198326	-1.947803185229262	-0.7367052774312116	-1.223714836945043e-08	6.118256729443431e-09	4.792295085789084e-08	1.097734952285821e-08	-2.72503000925837e-08	2.49041128480531e-08	-8.612683756931684e-09
1.02	0.1910146244901162	0.05208105842162152	0.8049306891481472	0.6014278138671878	-0.3499713625299665	-0.01675399679980856	-0.959823571383255	1.144669766673767	1.144669766673479	-0.1003247291131035	-0.1745311792435973	0.4360444700155224	0.1120338743834055	0.116149371374957	0.0300895456758967	0.06895588035644049	-0.3460417207848334	0.00450833943247248	-0.09489581930089853	0.01621793356535122	-0.2476852514570691	-0.2476852514570673	-0.002131185887339011	1.454225406801305e-05	-0.03379474085465607	-0.009545871942506086	-0.1605419072078029	0.06292925619344798	-0.004895978779078304	-0.3684737149584655	-0.1062321056303507	0.03638197150704394	0.3102301256694461	-81.79224999801653	-2.398404922098738	0.9777201988368173	19.64431256300237	-766.7526833148761	-77.91224387074278	-2.188379303968971	-0.3474484213787605	-0.1156765106735907	0.8687282876210511	-1.97058541729929	0.1977345085073419	-1.266372298352914	1.096080609509868	-3.987815831758207	-3.987815831758374	-0.1417095923220774	-0.007677788567594218	-1.95122240665012	-0.7488619198346578	-1.528201147286422e-08	-3.710528591224734e-09	6.307348083082676e-08	1.251232564632899e-08	-3.139601259915466e-08	1.181944515665084e-08	-1.060444364620432e-08
1.03	0.1921580857398699	0.05237640144625325	0.8056634646986278	0.5978697772958739	-0.3499161010583688	-0.0177665590173671	-0.9596049711923526	1.141994106905055	1.141994106904808	-0.1003521971332062	-0.1745310445583667	0.4356094587935807	0.1119017719615725	0.1125058998542431	0.02900159813368331	0.07758720829131814	-0.3655390506365729	0.006545303430800902	-0.1076080091390665	0.02762711265339162	-0.2874343740731488	-0.2874343740731382	-0.003367460888803081	1.238846649040192e-05	-0.05318253732064633	-0.01685451344630449	-0.1602081907899243	0.06298209189454357	-0.004951170118791943	-0.3677640227294087	-0.1061930300821746	0.03645431553057391	0.3103966656383935	-81.7597713356337	-2.46847833101245	1.026549080671922	19.31657409046282	-766.7685707105995	-77.95632606375929	-2.24968984444605	-0.3783438282654026	-0.1019702289357782	0.8585246958724868	-1.93532659662268	0.2068713762556002	-1.272362431918889	1.182087764410278	-3.966608714177174	-3.966608714175837	-0.1153483890888545	0.003529469896776985	-1.928815464602415	-0.7188573082965191	-1.831927977245088e-08	-1.356160368006189e-08	7.822297164734654e-08	1.402985692819414e-08	-3.554083911241883e-08	-1.307686167148287e-09	-1.259344790518839e-08
